P3
20 10
255
0 0 0 
12 0 0 
25 0 0 
38 0 0 
51 0 0 
63 0 0 
76 0 0 
89 0 0 
102 0 0 
114 0 0 
127 0 0 
140 0 0 
153 0 0 
165 0 0 
178 0 0 
191 0 0 
204 0 0 
216 0 0 
229 0 0 
242 0 0 
0 25 0 
12 25 0 
25 25 0 
38 25 0 
51 25 0 
63 25 0 
76 25 0 
89 25 0 
102 25 0 
114 25 0 
127 25 0 
140 25 0 
153 25 0 
165 25 0 
178 25 0 
191 25 0 
204 25 0 
216 25 0 
229 25 0 
242 25 0 
0 51 0 
12 51 0 
25 51 0 
38 51 0 
51 51 0 
63 51 0 
76 51 0 
89 51 0 
102 51 0 
114 51 0 
127 51 0 
140 51 0 
153 51 0 
165 51 0 
178 51 0 
191 51 0 
204 51 0 
216 51 0 
229 51 0 
242 51 0 
0 76 0 
12 76 0 
25 76 0 
38 76 0 
51 76 0 
63 76 0 
76 76 0 
89 76 0 
102 76 0 
114 76 0 
127 76 0 
140 76 0 
153 76 0 
165 76 0 
178 76 0 
191 76 0 
204 76 0 
216 76 0 
229 76 0 
242 76 0 
0 102 0 
12 102 0 
25 102 0 
38 102 0 
51 102 0 
63 102 0 
76 102 0 
89 102 0 
102 102 0 
114 102 0 
127 102 0 
140 102 0 
153 102 0 
165 102 0 
178 102 0 
191 102 0 
204 102 0 
216 102 0 
229 102 0 
242 102 0 
0 127 0 
12 127 0 
25 127 0 
38 127 0 
51 127 0 
63 127 0 
76 127 0 
89 127 0 
102 127 0 
114 127 0 
127 127 0 
140 127 0 
153 127 0 
165 127 0 
178 127 0 
191 127 0 
204 127 0 
216 127 0 
229 127 0 
242 127 0 
0 153 0 
12 153 0 
25 153 0 
38 153 0 
51 153 0 
63 153 0 
76 153 0 
89 153 0 
102 153 0 
114 153 0 
127 153 0 
140 153 0 
153 153 0 
165 153 0 
178 153 0 
191 153 0 
204 153 0 
216 153 0 
229 153 0 
242 153 0 
0 178 0 
12 178 0 
25 178 0 
38 178 0 
51 178 0 
63 178 0 
76 178 0 
89 178 0 
102 178 0 
114 178 0 
127 178 0 
140 178 0 
153 178 0 
165 178 0 
178 178 0 
191 178 0 
204 178 0 
216 178 0 
229 178 0 
242 178 0 
0 204 0 
12 204 0 
25 204 0 
38 204 0 
51 204 0 
63 204 0 
76 204 0 
89 204 0 
102 204 0 
114 204 0 
127 204 0 
140 204 0 
153 204 0 
165 204 0 
178 204 0 
191 204 0 
204 204 0 
216 204 0 
229 204 0 
242 204 0 
0 229 0 
12 229 0 
25 229 0 
38 229 0 
51 229 0 
63 229 0 
76 229 0 
89 229 0 
102 229 0 
114 229 0 
127 229 0 
140 229 0 
153 229 0 
165 229 0 
178 229 0 
191 229 0 
204 229 0 
216 229 0 
229 229 0 
242 229 0 
